#!OML:ASF F:\VICON\USERDATA\INSTALL\rory3\rory3.ASF
:FULLY-SPECIFIED
:DEGREES
2409
root 0.61838 17.6892 0.994634 12.0077 -25.7473 9.18347
lowerback 5.61938 -6.07616 -1.96004
upperback 3.30817 -8.3141 9.1819
thorax 2.0326 -4.44847 11.1111
lowerneck -22.0853 15.1304 -2.5871
upperneck 3.1172 21.0089 -3.53736
head 4.40073 10.0304 1.31626
rclavicle 6.83819e-014 -3.81667e-014
rhumerus 15.4089 15.3207 -41.3559
rradius 70.9274
rwrist -20.5252
rhand -24.3095 -7.78805
rfingers 7.12502
rthumb 2.17849 -37.7567
lclavicle 6.83819e-014 -3.81667e-014
lhumerus 71.1725 -45.5049 40.4023
lradius 40.194
lwrist -29.6839
lhand -41.7382 32.9997
lfingers 7.12502
lthumb -14.6429 -297.537
rfemur -38.3245 7.6372 2.75403
rtibia 40.4354
rfoot -13.2973 3.88957
rtoes 4.33618
lfemur -10.2693 12.1 -26.2093
ltibia 13.5165
lfoot -10.577 20.2597
ltoes -18.7819
2410
root 0.623456 17.6917 0.985738 11.9953 -25.462 9.13633
lowerback 5.59971 -6.04126 -1.98022
upperback 3.2659 -8.26527 9.19513
thorax 1.9936 -4.42152 11.1381
lowerneck -22.1093 15.0795 -2.7867
upperneck 2.8392 20.9705 -3.51661
head 4.29369 10.0216 1.32695
rclavicle 7.95139e-015 -2.54444e-014
rhumerus 15.0659 14.8875 -41.7347
rradius 70.9849
rwrist -19.449
rhand -25.5605 -7.9356
rfingers 7.12502
rthumb 0.970213 -37.9131
lclavicle 7.95139e-015 -2.54444e-014
lhumerus 69.6416 -45.6024 41.607
lradius 40.9224
lwrist -28.9571
lhand -40.23 32.2225
lfingers 7.12502
lthumb -13.1895 -298.215
rfemur -38.1583 7.45077 2.85971
rtibia 40.3016
rfoot -13.2397 3.78966
rtoes 4.51037
lfemur -10.3297 11.9591 -26.1103
ltibia 13.6105
lfoot -10.5763 20.1479
ltoes -18.9817
2411
root 0.62837 17.6974 0.989929 11.829 -25.3365 8.89696
lowerback 5.63279 -6.0463 -1.91248
upperback 3.32967 -8.27754 9.31352
thorax 2.05585 -4.43567 11.2327
lowerneck -21.7715 15.0898 -3.18578
upperneck 2.16686 21.0467 -3.6601
head 4.00923 10.0819 1.27832
rclavicle -1.63799e-013 9.22361e-014
rhumerus 14.9701 14.775 -41.8715
rradius 71.1663
rwrist -18.8861
rhand -26.9834 -8.24068
rfingers 7.12502
rthumb -0.404078 -38.22
lclavicle -1.63799e-013 9.22361e-014
lhumerus 67.42 -45.432 43.7425
lradius 41.3356
lwrist -28.9068
lhand -38.6346 31.8736
lfingers 7.12502
lthumb -11.6513 -298.47
rfemur -37.755 7.46259 3.14022
rtibia 40.1308
rfoot -13.1675 3.74709
rtoes 4.56503
lfemur -10.1142 11.7211 -25.8129
ltibia 13.7736
lfoot -10.6793 20.3346
ltoes -19.098
2412
root 0.630647 17.7033 0.992428 11.6928 -25.1622 8.35764
lowerback 5.58842 -6.02844 -1.43743
upperback 3.56708 -8.25077 9.30145
thorax 2.2532 -4.42213 10.9236
lowerneck -21.7319 15.1281 -3.34173
upperneck 1.6267 21.0962 -3.67057
head 3.81696 10.1277 1.26401
rclavicle -1.35174e-013 4.29375e-014
rhumerus 14.6744 14.2921 -42.4247
rradius 71.4216
rwrist -17.7709
rhand -28.0396 -8.49918
rfingers 7.12502
rthumb -1.42414 -38.4742
lclavicle -1.35174e-013 4.29375e-014
lhumerus 65.4502 -45.291 45.4386
lradius 41.8584
lwrist -28.7766
lhand -37.0545 32.0036
lfingers 7.12502
lthumb -10.1273 -298.26
rfemur -37.2229 7.66754 3.7208
rtibia 39.9272
rfoot -13.1941 3.58681
rtoes 4.5576
lfemur -9.79528 11.5582 -25.1754
ltibia 13.909
lfoot -10.7238 20.482
ltoes -19.4369
2413
root 0.630854 17.7088 0.971834 11.6517 -24.6753 8.13574
lowerback 5.60257 -5.9658 -1.27098
upperback 3.63853 -8.15912 9.22476
thorax 2.26431 -4.36911 10.7391
lowerneck -21.9056 15.0531 -3.17981
upperneck 1.38775 20.952 -3.78464
head 3.79498 10.0541 1.20145
rclavicle -6.20208e-014 5.40694e-014
rhumerus 14.1033 13.3396 -43.1486
rradius 71.574
rwrist -16.0757
rhand -28.4876 -8.45096
rfingers 7.12502
rthumb -1.85684 -38.4226
lclavicle -6.20208e-014 5.40694e-014
lhumerus 63.768 -45.4295 47.0484
lradius 42.3856
lwrist -28.3622
lhand -35.7502 31.6824
lfingers 7.12502
lthumb -8.86873 -298.524
rfemur -36.885 7.51728 4.06008
rtibia 39.7393
rfoot -13.2018 3.33336
rtoes 4.68039
lfemur -9.83812 11.6055 -24.819
ltibia 14.0974
lfoot -10.6582 20.0127
ltoes -19.5185
2414
root 0.636387 17.7118 0.970704 11.5358 -24.4588 8.07347
lowerback 5.51235 -5.76532 -1.1345
upperback 3.65253 -7.88142 9.06628
thorax 2.22722 -4.21555 10.4712
lowerneck -21.9409 14.8865 -2.86811
upperneck 1.25141 20.6623 -3.99319
head 3.8121 9.9016 1.07933
rclavicle 1.22451e-013 -1.08139e-013
rhumerus 13.3138 12.4273 -43.7819
rradius 71.7107
rwrist -14.7788
rhand -29.0602 -8.13896
rfingers 7.12502
rthumb -2.40982 -38.1051
lclavicle 1.22451e-013 -1.08139e-013
lhumerus 61.8561 -45.8062 49.0059
lradius 42.9805
lwrist -27.7618
lhand -34.4024 31.2974
lfingers 7.12502
lthumb -7.56802 -298.858
rfemur -36.5813 7.35537 4.178
rtibia 39.5776
rfoot -13.1876 3.31946
rtoes 4.6423
lfemur -9.80937 11.4915 -24.7081
ltibia 14.3348
lfoot -10.8143 19.9383
ltoes -19.4047
2415
root 0.641055 17.7145 0.966307 11.5247 -24.1841 7.91872
lowerback 5.44952 -5.60553 -1.01072
upperback 3.57784 -7.65296 8.96643
thorax 2.10486 -4.08512 10.2847
lowerneck -21.898 14.8071 -2.38813
upperneck 1.18868 20.4553 -4.27058
head 3.86364 9.7846 0.923903
rclavicle -4.92986e-014 -2.38542e-014
rhumerus 12.5429 11.8237 -44.2747
rradius 71.9889
rwrist -14.0253
rhand -29.7209 -7.71759
rfingers 7.12502
rthumb -3.04788 -37.6756
lclavicle -4.92986e-014 -2.38542e-014
lhumerus 60.013 -46.1928 50.4638
lradius 43.9208
lwrist -26.2078
lhand -32.651 31.0374
lfingers 7.12502
lthumb -5.87729 -299.064
rfemur -36.3601 7.17027 4.39739
rtibia 39.46
rfoot -13.1751 3.25361
rtoes 4.51701
lfemur -9.85552 11.4882 -24.5248
ltibia 14.4989
lfoot -10.8448 19.7517
ltoes -19.5003
2416
root 0.646221 17.7162 0.959082 11.4633 -23.8608 7.76571
lowerback 5.48362 -5.55245 -1.02133
upperback 3.49221 -7.57491 9.02098
thorax 1.99043 -4.04179 10.3604
lowerneck -21.8383 14.7963 -2.33184
upperneck 1.09924 20.4383 -4.47136
head 3.85526 9.76735 0.852373
rclavicle 1.90833e-014 -3.02153e-014
rhumerus 12.1601 11.56 -44.4884
rradius 72.2892
rwrist -13.3653
rhand -30.4164 -7.06889
rfingers 7.12502
rthumb -3.71956 -37.0162
lclavicle 1.90833e-014 -3.02153e-014
lhumerus 57.7505 -46.2008 52.2373
lradius 45.0187
lwrist -24.0785
lhand -30.8712 30.5149
lfingers 7.12502
lthumb -4.15878 -299.546
rfemur -36.0845 6.98416 4.62091
rtibia 39.3434
rfoot -13.1692 3.1729
rtoes 4.66648
lfemur -9.83067 11.4078 -24.3225
ltibia 14.6293
lfoot -10.816 19.6085
ltoes -19.7571
2417
root 0.653126 17.7186 0.954494 11.3202 -23.6015 7.62371
lowerback 5.53941 -5.48772 -0.971351
upperback 3.42971 -7.47923 9.07273
thorax 1.87615 -3.98843 10.399
lowerneck -21.721 14.733 -2.61271
upperneck 0.865582 20.4077 -4.49146
head 3.74089 9.76225 0.856371
rclavicle -1.59028e-015 2.22639e-014
rhumerus 11.8305 11.3435 -44.5999
rradius 72.6128
rwrist -12.6814
rhand -31.2222 -6.56514
rfingers 7.12502
rthumb -4.4977 -36.4974
lclavicle -1.59028e-015 2.22639e-014
lhumerus 55.0455 -46.0725 54.5387
lradius 46.0148
lwrist -22.4819
lhand -29.3508 30.0119
lfingers 7.12502
lthumb -2.69053 -300.025
rfemur -35.7493 6.81044 4.83343
rtibia 39.2291
rfoot -13.1448 3.13084
rtoes 4.40578
lfemur -9.70172 11.2024 -24.1156
ltibia 14.7854
lfoot -10.9825 19.5918
ltoes -19.4846
2418
root 0.659439 17.721 0.950424 11.1387 -23.3788 7.49757
lowerback 5.56944 -5.26703 -0.796765
upperback 3.4551 -7.16884 8.90306
thorax 1.77832 -3.81717 10.1085
lowerneck -21.8342 14.6061 -2.33991
upperneck 0.706806 20.168 -4.58735
head 3.7424 9.64045 0.776134
rclavicle 6.36111e-015 -9.54166e-015
rhumerus 11.1288 10.6195 -44.9719
rradius 72.9797
rwrist -11.9511
rhand -31.9611 -6.08524
rfingers 7.12502
rthumb -5.2112 -36.0012
lclavicle 6.36111e-015 -9.54166e-015
lhumerus 53.0139 -46.3223 55.9685
lradius 47.0445
lwrist -21.2405
lhand -27.8681 30.0848
lfingers 7.12502
lthumb -1.25856 -299.939
rfemur -35.3973 6.71893 5.0114
rtibia 39.1183
rfoot -13.1314 3.08099
rtoes 4.6273
lfemur -9.52048 11.0661 -23.9203
ltibia 14.8837
lfoot -11.0634 19.5138
ltoes -19.2499
2419
root 0.664745 17.7234 0.946361 10.973 -23.1299 7.42075
lowerback 5.52366 -4.93398 -0.601108
upperback 3.55752 -6.71255 8.59626
thorax 1.76011 -3.57112 9.63938
lowerneck -22.3908 14.3951 -1.7316
upperneck 0.806019 19.7494 -4.65352
head 3.91315 9.41113 0.688581
rclavicle 5.40694e-014 -8.26944e-014
rhumerus 10.2829 9.52717 -45.4153
rradius 73.2581
rwrist -11.2008
rhand -32.7521 -5.0808
rfingers 7.12502
rthumb -5.97488 -34.9766
lclavicle 5.40694e-014 -8.26944e-014
lhumerus 51.6749 -46.8341 56.6329
lradius 48.0794
lwrist -20.065
lhand -26.5524 30.4523
lfingers 7.12502
lthumb 0.0122544 -299.568
rfemur -35.0707 6.62047 5.13619
rtibia 39.0092
rfoot -13.1348 3.00157
rtoes 4.82327
lfemur -9.36507 10.9451 -23.789
ltibia 14.9304
lfoot -11.0324 19.4961
ltoes -19.4743
2420
root 0.672101 17.7266 0.943554 10.848 -22.7972 7.34496
lowerback 5.44959 -4.77893 -0.571753
upperback 3.56098 -6.50394 8.52108
thorax 1.75453 -3.46135 9.52875
lowerneck -22.7514 14.2667 -1.62174
upperneck 0.92438 19.5533 -4.58328
head 4.0022 9.30502 0.704799
rclavicle -5.08889e-014 -1.90833e-014
rhumerus 9.93175 8.99851 -45.5721
rradius 73.3965
rwrist -10.493
rhand -33.6206 -3.30162
rfingers 7.12502
rthumb -6.81334 -33.172
lclavicle -5.08889e-014 -1.90833e-014
lhumerus 49.3784 -46.8511 58.3835
lradius 48.9578
lwrist -19.3061
lhand -25.6465 30.4813
lfingers 7.12502
lthumb 0.887195 -299.541
rfemur -34.7326 6.43654 5.25496
rtibia 38.9045
rfoot -13.1706 2.95283
rtoes 4.96648
lfemur -9.25134 10.8102 -23.6649
ltibia 14.9855
lfoot -11.0929 19.3878
ltoes -19.6189
2421
root 0.680393 17.7315 0.940088 10.764 -22.3901 7.19816
lowerback 5.43059 -4.80236 -0.576695
upperback 3.44174 -6.529 8.61979
thorax 1.65786 -3.47137 9.64503
lowerneck -22.5852 14.2594 -1.70037
upperneck 0.739681 19.5537 -4.63404
head 3.91894 9.31207 0.680376
rclavicle 1.27222e-014 -1.27222e-014
rhumerus 10.0284 9.02123 -45.5844
rradius 73.573
rwrist -9.62758
rhand -34.4823 -3.02829
rfingers 7.12502
rthumb -7.64507 -32.8701
lclavicle 1.27222e-014 -1.27222e-014
lhumerus 46.1159 -46.3674 61.029
lradius 49.7652
lwrist -18.9473
lhand -25.1268 30.1477
lfingers 7.12502
lthumb 1.38909 -299.877
rfemur -34.3924 6.18942 5.46559
rtibia 38.7929
rfoot -13.2425 2.86451
rtoes 4.54035
lfemur -9.18482 10.6052 -23.4518
ltibia 15.0709
lfoot -11.1003 19.2026
ltoes -19.5736
2422
root 0.68934 17.7327 0.937486 10.6524 -22.085 7.07683
lowerback 5.39294 -4.80271 -0.543153
upperback 3.34912 -6.52181 8.62316
thorax 1.5765 -3.462 9.62983
lowerneck -22.2714 14.2818 -1.64948
upperneck 0.357702 19.5453 -4.70482
head 3.76605 9.32459 0.614823
rclavicle -6.36111e-015 5.40694e-014
rhumerus 10.2671 8.91482 -45.7986
rradius 73.7367
rwrist -8.26222
rhand -35.3729 -4.38799
rfingers 7.12502
rthumb -8.50465 -34.1967
lclavicle -6.36111e-015 5.40694e-014
lhumerus 42.8745 -45.8352 63.4724
lradius 50.5871
lwrist -18.6042
lhand -24.9122 29.8235
lfingers 7.12502
lthumb 1.59632 -300.203
rfemur -34.0916 6.03564 5.62532
rtibia 38.6783
rfoot -13.2398 2.7891
rtoes 4.54113
lfemur -9.1073 10.4457 -23.283
ltibia 15.1853
lfoot -11.115 19.0924
ltoes -19.5123
2423
root 0.698534 17.7336 0.936337 10.4638 -21.8345 6.92601
lowerback 5.34156 -4.74066 -0.456096
upperback 3.37724 -6.43784 8.58132
thorax 1.60425 -3.41708 9.52539
lowerneck -22.3313 14.2609 -1.64942
upperneck 0.243396 19.505 -4.66885
head 3.73374 9.30912 0.618912
rclavicle -2.54444e-014 0
rhumerus 10.4966 8.5637 -45.9908
rradius 73.9291
rwrist -7.02109
rhand -36.016 -4.80397
rfingers 7.12502
rthumb -9.12519 -34.5866
lclavicle -2.54444e-014 0
lhumerus 40.0525 -45.2646 65.5446
lradius 51.2865
lwrist -18.2984
lhand -24.7685 29.4946
lfingers 7.12502
lthumb 1.73516 -300.533
rfemur -33.7096 5.93185 5.81802
rtibia 38.5664
rfoot -13.2089 2.7305
rtoes 4.72739
lfemur -8.93675 10.3301 -23.0767
ltibia 15.3102
lfoot -11.0784 19.001
ltoes -19.7291
